<svg width="80" height="80" viewBox="0 0 80 80" fill="none" xmlns="http://www.w3.org/2000/svg">
  <rect width="80" height="80" fill="#374151"/>
  <path d="M20 25C20 22.2386 22.2386 20 25 20H55C57.7614 20 60 22.2386 60 25V55C60 57.7614 57.7614 60 55 60H25C22.2386 60 20 57.7614 20 55V25Z" fill="#6B7280"/>
  <path d="M30 35C30 32.2386 32.2386 30 35 30H45C47.7614 30 50 32.2386 50 35V45C50 47.7614 47.7614 50 45 50H35C32.2386 50 30 47.7614 30 45V35Z" fill="#9CA3AF"/>
  <circle cx="40" cy="40" r="3" fill="#D1D5DB"/>
</svg>